<svg width="41" height="24" viewBox="0 0 41 24" fill="none" xmlns="http://www.w3.org/2000/svg">
<path d="M10.674 23.0505H1V5.33362L10.674 1V23.0505Z" fill="#97040C" stroke="#97040C" stroke-width="0.5428" stroke-miterlimit="10"/>
<path d="M11.5865 23.0506V1.30603L12.2124 1.58644V23.0506H11.5865Z" fill="#97040C"/>
<path d="M11.639 1.40781L12.1344 1.63724V22.9994H11.639V1.40781ZM11.5086 1.22937V23.1014H12.2387V1.56076L11.5086 1.22937Z" fill="#97040C"/>
<path d="M13.0467 23.0504V1.99414L13.6725 2.24906V23.0504H13.0467Z" fill="#97040C"/>
<path d="M13.1253 2.07065L13.6468 2.30008V22.9995H13.1253V2.07065ZM12.9949 1.89221V23.1014H13.725V2.22361L12.9949 1.89221Z" fill="#97040C"/>
<path d="M14.533 23.0505V2.65698L15.1588 2.93739V23.0505H14.533Z" fill="#97040C"/>
<path d="M14.5856 2.73337L15.1071 2.9628V22.9994H14.5856V2.73337ZM14.4813 2.55493V23.1014H15.2114V2.88633L14.4813 2.55493Z" fill="#97040C"/>
<path d="M16.0193 23.0504V3.29419L16.6452 3.60009V23.0504H16.0193Z" fill="#97040C"/>
<path d="M16.0719 3.39634L16.5934 3.62577V22.9996H16.0719V3.39634ZM15.9676 3.2179V23.1016H16.6977V3.54929L15.9676 3.2179Z" fill="#97040C"/>
<path d="M17.4797 23.0505V3.98254L18.1055 4.26295V23.0505H17.4797Z" fill="#97040C"/>
<path d="M17.532 4.05894L18.0535 4.28836V22.9994H17.532V4.05894ZM17.4277 3.88049V23.1014H18.1578V4.21189L17.4277 3.88049Z" fill="#97040C"/>
<path d="M18.966 23.0504V4.64526L19.5918 4.92567V23.0504H18.966Z" fill="#97040C"/>
<path d="M19.0184 4.72178L19.5399 4.9512V22.9994H19.0184V4.72178ZM18.9141 4.54333V23.1014H19.6442V4.87473L18.9141 4.54333Z" fill="#97040C"/>
<path d="M23.5033 8.16323L22.2256 6.78667V8.16323H21.4955V4.90027H23.0861C23.8684 4.90027 24.3377 5.28265 24.3377 5.94544C24.3377 6.58273 23.9466 6.91413 23.2165 6.93962L24.4681 8.16323H23.5033ZM22.2256 6.3533H23.1382C23.4251 6.3533 23.5815 6.22585 23.5815 5.94544C23.5815 5.69052 23.399 5.53757 23.1382 5.53757H22.2256V6.3533Z" fill="black"/>
<path d="M25.0939 4.90027H27.7276V5.56306H25.824V6.12388H27.1539V6.76118H25.824V7.52593H27.7276V8.18872H25.0939V4.90027Z" fill="black"/>
<path d="M29.8656 4.74731L31.7691 8.16323H30.9869L30.6479 7.55142H29.0573L28.7183 8.16323H27.9099L29.8656 4.74731ZM30.335 6.96511L29.8656 6.09838L29.3963 6.96511H30.335Z" fill="black"/>
<path d="M32.1865 4.90027H32.9166V7.50044H34.6115V8.16323H32.1865V4.90027Z" fill="black"/>
<path d="M21.4955 9.99878H24.1291V10.6616H22.2256V11.2224H23.5555V11.8597H22.2256V12.6244H24.1291V13.2872H21.4955V9.99878Z" fill="black"/>
<path d="M24.5986 12.9303L24.9898 12.3695C25.3287 12.5479 25.7199 12.6754 26.111 12.6754C26.4761 12.6754 26.6847 12.5479 26.7108 12.344C26.7108 12.1401 26.6064 12.0636 26.1892 11.9871L25.772 11.8851C25.0158 11.7322 24.729 11.4008 24.729 10.891C24.729 10.3556 25.3027 9.94775 26.0328 9.94775C26.5282 9.94775 27.0237 10.1007 27.3626 10.3046L26.9976 10.8655C26.7368 10.7125 26.4239 10.6105 26.111 10.6105C25.772 10.6105 25.5374 10.7125 25.5374 10.9419C25.5374 11.1204 25.6938 11.2223 26.0067 11.2733L26.45 11.3753C27.154 11.5282 27.4669 11.8342 27.4669 12.344C27.4669 12.9048 26.9194 13.3127 26.0849 13.3127C25.5374 13.3127 24.9898 13.1597 24.5986 12.9303Z" fill="black"/>
<path d="M28.8486 10.6616H27.7795V9.99878H30.6217V10.6616H29.5526V13.2617H28.8225V10.6616H28.8486Z" fill="black"/>
<path d="M32.6297 9.8457L34.5332 13.2616H33.7509L33.4119 12.6498H31.8213L31.4824 13.2616H30.674L32.6297 9.8457ZM33.099 12.0635L32.6297 11.1968L32.1603 12.0635H33.099Z" fill="black"/>
<path d="M35.6544 10.6616H34.5853V9.99878H37.4276V10.6616H36.3585V13.2617H35.6284V10.6616H35.6544Z" fill="black"/>
<path d="M38.001 9.99878H40.6346V10.6616H38.7311V11.2224H40.0609V11.8597H38.7311V12.6244H40.6346V13.2872H38.001V9.99878Z" fill="black"/>
<path d="M21.6517 22.4131V20.7052C22.2775 21.215 23.1641 21.5209 23.7639 21.5209C24.5722 21.5209 25.0416 21.2405 25.0416 20.6032C25.0416 19.8384 24.1811 19.5071 22.8251 19.711V18.3854C24.155 18.3599 24.859 17.9266 24.8069 17.2128C24.7808 16.7284 24.4418 16.499 23.816 16.499C23.2163 16.499 22.6165 16.7284 21.9907 17.2638L22.0168 15.6068C22.434 15.2499 23.2945 14.995 24.1028 14.995C25.537 14.995 26.6061 15.8617 26.6061 17.0853C26.6061 17.9011 26.241 18.4874 25.4327 18.9207C26.3975 19.2266 26.8668 19.8384 26.8668 20.7307C26.8668 22.0817 25.6934 23.1014 24.1289 23.1014C23.2423 23.0759 22.2775 22.7955 21.6517 22.4131Z" fill="#97040C"/>
<path d="M28.0666 20.2207C28.0666 18.4108 29.3182 16.4225 31.4825 14.8929L32.7341 15.8871C31.3 16.8558 30.5438 17.799 30.3091 18.2324C30.5698 18.1559 30.8827 18.0794 31.3 18.0794C32.7863 18.0794 33.9597 19.1246 33.9597 20.5012C33.9597 21.8777 32.8123 23.1013 31.0131 23.1013C29.2661 23.0758 28.0666 21.9287 28.0666 20.2207ZM32.2126 20.4757C32.2126 19.8384 31.7172 19.3795 31.0131 19.3795C30.3352 19.3795 29.8397 19.8384 29.8397 20.4757C29.8397 21.113 30.3352 21.5718 31.0131 21.5718C31.7172 21.5718 32.2126 21.113 32.2126 20.4757Z" fill="#97040C"/>
<path d="M35.1068 19.0481C35.1068 16.4989 36.202 14.9694 38.0534 14.9694C39.9047 14.9694 40.9999 16.4734 40.9999 19.0481C40.9999 21.5972 39.9047 23.1268 38.0534 23.1268C36.202 23.1013 35.1068 21.5972 35.1068 19.0481ZM39.2528 19.0481C39.2528 17.4166 38.7835 16.4224 38.0534 16.4224C37.3232 16.4224 36.8539 17.4166 36.8539 19.0481C36.8539 20.6795 37.3232 21.6737 38.0534 21.6737C38.7835 21.6737 39.2528 20.654 39.2528 19.0481Z" fill="#97040C"/>
</svg>
