<svg width="111" height="65" viewBox="0 0 111 65" fill="none" xmlns="http://www.w3.org/2000/svg">
<path d="M27.6037 64.4146H1V13.463L27.6037 1V64.4146Z" fill="#97040C" stroke="#97040C" stroke-width="0.5428" stroke-miterlimit="10"/>
<path d="M30.1134 64.4148V1.87988L31.8344 2.68631V64.4148H30.1134Z" fill="#97040C"/>
<path d="M30.2569 2.17297L31.6194 2.83278V64.268H30.2569V2.17297ZM29.8984 1.65979V64.5612H31.9062V2.61284L29.8984 1.65979Z" fill="#97040C"/>
<path d="M34.1291 64.4146V3.85913L35.8501 4.59225V64.4146H34.1291Z" fill="#97040C"/>
<path d="M34.3442 4.0791L35.7784 4.7389V64.268H34.3442V4.0791ZM33.9857 3.56592V64.5613H35.9935V4.51897L33.9857 3.56592Z" fill="#97040C"/>
<path d="M38.2165 64.4146V5.76526L39.9375 6.57169V64.4146H38.2165Z" fill="#97040C"/>
<path d="M38.3598 5.98523L39.794 6.64503V64.268H38.3598V5.98523ZM38.073 5.47205V64.5613H40.0808V6.4251L38.073 5.47205Z" fill="#97040C"/>
<path d="M42.3039 64.4146V7.59802L44.0249 8.47776V64.4146H42.3039Z" fill="#97040C"/>
<path d="M42.4473 7.89123L43.8814 8.55104V64.2679H42.4473V7.89123ZM42.1604 7.37805V64.5612H44.1683V8.3311L42.1604 7.37805Z" fill="#97040C"/>
<path d="M46.3195 64.4147V9.57751L48.0405 10.3839V64.4147H46.3195Z" fill="#97040C"/>
<path d="M46.4628 9.79748L47.897 10.4573V64.2681H46.4628V9.79748ZM46.176 9.2843V64.5613H48.1838V10.2374L46.176 9.2843Z" fill="#97040C"/>
<path d="M50.4068 64.4147V11.4836L52.1278 12.2901V64.4147H50.4068Z" fill="#97040C"/>
<path d="M50.5503 11.7035L51.9844 12.3633V64.268H50.5503V11.7035ZM50.2634 11.1903V64.5612H52.2713V12.1434L50.2634 11.1903Z" fill="#97040C"/>
<path d="M62.884 21.6007L59.3703 17.6419V21.6007H57.3624V12.2168H61.7366C63.8879 12.2168 65.1786 13.3165 65.1786 15.2226C65.1786 17.0554 64.103 18.0084 62.0952 18.0817L65.5372 21.6007H62.884ZM59.3703 16.3956H61.88C62.6688 16.3956 63.0991 16.029 63.0991 15.2226C63.0991 14.4895 62.5971 14.0496 61.88 14.0496H59.3703V16.3956Z" fill="black"/>
<path d="M67.2582 12.2168H74.5007V14.1229H69.266V15.7358H72.9231V17.5686H69.266V19.7679H74.5007V21.674H67.2582V12.2168Z" fill="black"/>
<path d="M80.3807 11.7769L85.6154 21.6006H83.4641L82.5319 19.8411H78.1577L77.2255 21.6006H75.0026L80.3807 11.7769ZM81.6714 18.155L80.3807 15.6624L79.0899 18.155H81.6714Z" fill="black"/>
<path d="M86.7627 12.2168H88.7706V19.6946H93.4316V21.6007H86.7627V12.2168Z" fill="black"/>
<path d="M57.3624 26.8792H64.605V28.7853H59.3703V30.3981H63.0274V32.2309H59.3703V34.4303H64.605V36.3364H57.3624V26.8792Z" fill="black"/>
<path d="M65.8957 35.3099L66.9713 33.697C67.9035 34.2102 68.9791 34.5768 70.0548 34.5768C71.0587 34.5768 71.6323 34.2102 71.704 33.6237C71.704 33.0372 71.4172 32.8173 70.2699 32.5974L69.1226 32.3041C67.043 31.8642 66.2542 30.9112 66.2542 29.445C66.2542 27.9054 67.8318 26.7324 69.8396 26.7324C71.2021 26.7324 72.5645 27.1723 73.4967 27.7588L72.4928 29.3716C71.7757 28.9318 70.9152 28.6385 70.0548 28.6385C69.1225 28.6385 68.4772 28.9318 68.4772 29.5916C68.4772 30.1048 68.9074 30.398 69.7679 30.5446L70.987 30.8379C72.9231 31.2777 73.7836 32.1575 73.7836 33.6237C73.7836 35.2366 72.2777 36.4096 69.983 36.4096C68.4772 36.4096 66.9713 35.9697 65.8957 35.3099Z" fill="black"/>
<path d="M77.5841 28.7853H74.6441V26.8792H82.4602V28.7853H79.5202V36.2631H77.5124V28.7853H77.5841Z" fill="black"/>
<path d="M87.9817 26.4392L93.2164 36.263H91.0652L90.133 34.5035H85.7588L84.8266 36.263H82.6036L87.9817 26.4392ZM89.2725 32.8173L87.9817 30.3247L86.691 32.8173H89.2725Z" fill="black"/>
<path d="M96.2999 28.7853H93.3598V26.8792H101.176V28.7853H98.236V36.2631H96.2281V28.7853H96.2999Z" fill="black"/>
<path d="M102.754 26.8792H109.996V28.7853H104.761V30.3981H108.419V32.2309H104.761V34.4303H109.996V36.3364H102.754V26.8792Z" fill="black"/>
<path d="M57.7927 62.5818V57.6699C59.5137 59.1361 61.9518 60.0158 63.6011 60.0158C65.824 60.0158 67.1148 59.2094 67.1148 57.3766C67.1148 55.1773 64.7484 54.2242 61.0196 54.8107V50.9985C64.6767 50.9252 66.6128 49.6789 66.4694 47.6262C66.3977 46.2332 65.4655 45.5734 63.7445 45.5734C62.0952 45.5734 60.4459 46.2332 58.7249 47.7728L58.7966 43.0075C59.944 41.9812 62.3103 41.248 64.5333 41.248C68.4772 41.248 71.4172 43.7406 71.4172 47.2596C71.4172 49.6056 70.4133 51.2917 68.1904 52.538C70.8436 53.4178 72.1343 55.1773 72.1343 57.7432C72.1343 61.6287 68.9075 64.5612 64.605 64.5612C62.1669 64.4879 59.5137 63.6814 57.7927 62.5818Z" fill="#97040C"/>
<path d="M75.4328 56.277C75.4328 51.0718 78.8748 45.3535 84.8266 40.9548L88.2686 43.814C84.3246 46.5998 82.2451 49.3124 81.5997 50.5587C82.3168 50.3387 83.1773 50.1188 84.3246 50.1188C88.412 50.1188 91.6388 53.1246 91.6388 57.0834C91.6388 61.0422 88.4837 64.5612 83.5358 64.5612C78.7314 64.4879 75.4328 61.1889 75.4328 56.277ZM86.8344 57.0101C86.8344 55.1773 85.472 53.8577 83.5358 53.8577C81.6714 53.8577 80.309 55.1773 80.309 57.0101C80.309 58.8429 81.6714 60.1625 83.5358 60.1625C85.472 60.1625 86.8344 58.8429 86.8344 57.0101Z" fill="#97040C"/>
<path d="M94.794 52.9047C94.794 45.5735 97.8058 41.1748 102.897 41.1748C107.988 41.1748 111 45.5002 111 52.9047C111 60.2358 107.988 64.6346 102.897 64.6346C97.8058 64.5612 94.794 60.2358 94.794 52.9047ZM106.196 52.9047C106.196 48.2127 104.905 45.3536 102.897 45.3536C100.889 45.3536 99.5985 48.2127 99.5985 52.9047C99.5985 57.5966 100.889 60.4558 102.897 60.4558C104.905 60.4558 106.196 57.5233 106.196 52.9047Z" fill="#97040C"/>
</svg>
