<svg width="288" height="163" viewBox="0 0 288 163" fill="none" xmlns="http://www.w3.org/2000/svg">
<path d="M70.2419 162.44H1V32.7281L70.2419 1V162.44Z" fill="#97040C" stroke="#97040C" stroke-width="0.5428" stroke-miterlimit="10"/>
<path d="M76.7742 162.44V3.23975L81.2534 5.29274V162.44H76.7742Z" fill="#97040C"/>
<path d="M77.1474 3.98626L80.6935 5.66599V162.067H77.1474V3.98626ZM76.2143 2.67981V162.813H81.4401V5.10608L76.2143 2.67981Z" fill="#97040C"/>
<path d="M87.2258 162.44V8.27881L91.7051 10.1452V162.44H87.2258Z" fill="#97040C"/>
<path d="M87.7857 8.83868L91.5184 10.5184V162.067H87.7857V8.83868ZM86.8525 7.53223V162.813H92.0783V9.95849L86.8525 7.53223Z" fill="#97040C"/>
<path d="M97.8641 162.44V13.1313L102.343 15.1843V162.44H97.8641Z" fill="#97040C"/>
<path d="M98.2374 13.6912L101.97 15.3709V162.067H98.2374V13.6912ZM97.4908 12.3848V162.813H102.717V14.811L97.4908 12.3848Z" fill="#97040C"/>
<path d="M108.502 162.44V17.7971L112.982 20.0368V162.44H108.502Z" fill="#97040C"/>
<path d="M108.876 18.5438L112.608 20.2235V162.067H108.876V18.5438ZM108.129 17.2373V162.813H113.355V19.6636L108.129 17.2373Z" fill="#97040C"/>
<path d="M118.954 162.44V22.8364L123.433 24.8894V162.44H118.954Z" fill="#97040C"/>
<path d="M119.327 23.3963L123.06 25.076V162.067H119.327V23.3963ZM118.581 22.0898V162.813H123.806V24.5161L118.581 22.0898Z" fill="#97040C"/>
<path d="M129.592 162.44V27.6891L134.071 29.7421V162.44H129.592Z" fill="#97040C"/>
<path d="M129.965 28.249L133.698 29.9287V162.067H129.965V28.249ZM129.219 26.9425V162.813H134.445V29.3688L129.219 26.9425Z" fill="#97040C"/>
<path d="M162.067 53.4447L152.922 43.3664V53.4447H147.696V29.5553H159.081C164.68 29.5553 168.039 32.3548 168.039 37.2074C168.039 41.8733 165.24 44.2995 160.014 44.4862L168.972 53.4447H162.067ZM152.922 40.1935H159.454C161.507 40.1935 162.627 39.2604 162.627 37.2074C162.627 35.341 161.32 34.2212 159.454 34.2212H152.922V40.1935Z" fill="black"/>
<path d="M173.452 29.5553H192.302V34.4078H178.677V38.5138H188.196V43.1797H178.677V48.7788H192.302V53.6313H173.452V29.5553Z" fill="black"/>
<path d="M207.606 28.4355L221.23 53.4448H215.631L213.205 48.9655H201.82L199.394 53.4448H193.608L207.606 28.4355ZM210.965 44.6729L207.606 38.3273L204.247 44.6729H210.965Z" fill="black"/>
<path d="M224.217 29.5553H229.442V48.5922H241.574V53.4447H224.217V29.5553Z" fill="black"/>
<path d="M147.696 66.8826H166.546V71.7351H152.922V75.8411H162.44V80.507H152.922V86.1061H166.546V90.9586H147.696V66.8826Z" fill="black"/>
<path d="M169.905 88.3457L172.705 84.2397C175.131 85.5461 177.931 86.4793 180.73 86.4793C183.343 86.4793 184.836 85.5461 185.023 84.0531C185.023 82.56 184.276 82.0001 181.29 81.4402L178.304 80.6936C172.892 79.5738 170.839 77.1475 170.839 73.4148C170.839 69.4954 174.945 66.5093 180.17 66.5093C183.717 66.5093 187.263 67.6291 189.689 69.1222L187.076 73.2282C185.21 72.1084 182.97 71.3618 180.73 71.3618C178.304 71.3618 176.624 72.1084 176.624 73.7881C176.624 75.0945 177.744 75.8411 179.984 76.2143L183.157 76.9609C188.196 78.0807 190.435 80.3203 190.435 84.0531C190.435 88.159 186.516 91.1452 180.544 91.1452C176.624 91.1452 172.705 90.0254 169.905 88.3457Z" fill="black"/>
<path d="M200.327 71.7351H192.675V66.8826H213.018V71.7351H205.366V90.772H200.141V71.7351H200.327Z" fill="black"/>
<path d="M227.389 65.7627L241.014 90.7719H235.415L232.988 86.2927H221.604L219.177 90.7719H213.392L227.389 65.7627ZM230.749 82L227.389 75.6544L224.03 82H230.749Z" fill="black"/>
<path d="M249.039 71.7351H241.387V66.8826H261.73V71.7351H254.078V90.772H248.853V71.7351H249.039Z" fill="black"/>
<path d="M265.836 66.8826H284.687V71.7351H271.062V75.8411H280.581V80.507H271.062V86.1061H284.687V90.9586H265.836V66.8826Z" fill="black"/>
<path d="M148.816 157.774V145.27C153.295 149.002 159.64 151.242 163.933 151.242C169.719 151.242 173.078 149.189 173.078 144.523C173.078 138.924 166.919 136.498 157.214 137.991V128.286C166.733 128.099 171.772 124.926 171.399 119.7C171.212 116.154 168.786 114.475 164.306 114.475C160.014 114.475 155.721 116.154 151.242 120.074L151.428 107.942C154.415 105.329 160.574 103.463 166.359 103.463C176.624 103.463 184.276 109.809 184.276 118.767C184.276 124.74 181.663 129.032 175.878 132.205C182.783 134.445 186.143 138.924 186.143 145.456C186.143 155.348 177.744 162.813 166.546 162.813C160.2 162.627 153.295 160.574 148.816 157.774Z" fill="#97040C"/>
<path d="M194.728 141.723C194.728 128.472 203.687 113.915 219.177 102.717L228.136 109.995C217.871 117.088 212.458 123.993 210.779 127.166C212.645 126.606 214.885 126.046 217.871 126.046C228.509 126.046 236.908 133.698 236.908 143.776C236.908 153.855 228.696 162.813 215.818 162.813C203.313 162.627 194.728 154.228 194.728 141.723ZM224.403 143.59C224.403 138.924 220.857 135.564 215.818 135.564C210.965 135.564 207.419 138.924 207.419 143.59C207.419 148.256 210.965 151.615 215.818 151.615C220.857 151.615 224.403 148.256 224.403 143.59Z" fill="#97040C"/>
<path d="M245.12 133.138C245.12 114.475 252.958 103.276 266.21 103.276C279.461 103.276 287.299 114.288 287.299 133.138C287.299 151.802 279.461 163 266.21 163C252.958 162.813 245.12 151.802 245.12 133.138ZM274.795 133.138C274.795 121.194 271.435 113.915 266.21 113.915C260.984 113.915 257.624 121.194 257.624 133.138C257.624 145.083 260.984 152.362 266.21 152.362C271.435 152.362 274.795 144.896 274.795 133.138Z" fill="#97040C"/>
</svg>
