<svg width="144" height="84" viewBox="0 0 144 84" fill="none" xmlns="http://www.w3.org/2000/svg">
<path d="M35.5848 83.439H1V17.2019L35.5848 1V83.439Z" fill="#97040C" stroke="#97040C" stroke-width="0.5428" stroke-miterlimit="10"/>
<path d="M38.8475 83.4391V2.1438L41.0848 3.19216V83.4391H38.8475Z" fill="#97040C"/>
<path d="M39.034 2.52492L40.8052 3.38267V83.2484H39.034V2.52492ZM38.5679 1.85779V83.6296H41.178V3.09676L38.5679 1.85779Z" fill="#97040C"/>
<path d="M44.0678 83.439V4.71692L46.3051 5.66997V83.439H44.0678Z" fill="#97040C"/>
<path d="M44.3474 5.00283L46.2119 5.86058V83.2484H44.3474V5.00283ZM43.8813 4.33569V83.6296H46.4915V5.57466L43.8813 4.33569Z" fill="#97040C"/>
<path d="M49.3814 83.439V7.19482L51.6187 8.24318V83.439H49.3814Z" fill="#97040C"/>
<path d="M49.5678 7.48074L51.4322 8.33848V83.2483H49.5678V7.48074ZM49.1949 6.8136V83.6296H51.8051V8.05257L49.1949 6.8136Z" fill="#97040C"/>
<path d="M54.695 83.4389V9.57739L56.9323 10.7211V83.4389H54.695Z" fill="#97040C"/>
<path d="M54.8814 9.95864L56.7458 10.8164V83.2483H54.8814V9.95864ZM54.5085 9.2915V83.6295H57.1187V10.5305L54.5085 9.2915Z" fill="#97040C"/>
<path d="M59.9153 83.439V12.1508L62.1526 13.1991V83.439H59.9153Z" fill="#97040C"/>
<path d="M60.1017 12.4367L61.9661 13.2944V83.2484H60.1017V12.4367ZM59.7288 11.7695V83.6296H62.339V13.0085L59.7288 11.7695Z" fill="#97040C"/>
<path d="M65.2289 83.4391V14.6288L67.4661 15.6771V83.4391H65.2289Z" fill="#97040C"/>
<path d="M65.4153 14.9146L67.2797 15.7723V83.2484H65.4153V14.9146ZM65.0424 14.2474V83.6296H67.6526V15.4864L65.0424 14.2474Z" fill="#97040C"/>
<path d="M81.4491 27.7809L76.8813 22.6344V27.7809H74.2711V15.5818H79.9576C82.7542 15.5818 84.4321 17.0114 84.4321 19.4893C84.4321 21.8719 83.0338 23.1109 80.4237 23.2062L84.8982 27.7809H81.4491ZM76.8813 21.0142H80.144C81.1694 21.0142 81.7287 20.5377 81.7287 19.4893C81.7287 18.5362 81.0762 17.9644 80.144 17.9644H76.8813V21.0142Z" fill="black"/>
<path d="M87.1356 15.5818H96.5508V18.0597H89.7458V20.1564H94.5V22.5391H89.7458V25.3982H96.5508V27.8762H87.1356V15.5818Z" fill="black"/>
<path d="M104.195 15.0099L111 27.7808H108.203L106.991 25.4935H101.305L100.093 27.7808H97.2033L104.195 15.0099ZM105.873 23.3014L104.195 20.0611L102.517 23.3014H105.873Z" fill="black"/>
<path d="M112.491 15.5818H115.102V25.3029H121.161V27.7809H112.491V15.5818Z" fill="black"/>
<path d="M74.2711 34.6428H83.6864V37.1208H76.8813V39.2175H81.6355V41.6001H76.8813V44.4593H83.6864V46.9372H74.2711V34.6428Z" fill="black"/>
<path d="M85.3643 45.6029L86.7627 43.5061C87.9745 44.1733 89.3728 44.6498 90.7711 44.6498C92.0762 44.6498 92.822 44.1733 92.9152 43.4108C92.9152 42.6484 92.5423 42.3625 91.0508 42.0766L89.5593 41.6953C86.8559 41.1235 85.8305 39.8845 85.8305 37.9784C85.8305 35.977 87.8813 34.4521 90.4915 34.4521C92.2627 34.4521 94.0338 35.024 95.2457 35.7864L93.9406 37.8831C93.0084 37.3113 91.8898 36.9301 90.7711 36.9301C89.5593 36.9301 88.7203 37.3113 88.7203 38.169C88.7203 38.8362 89.2796 39.2174 90.3983 39.408L91.983 39.7892C94.4999 40.3611 95.6186 41.5047 95.6186 43.4108C95.6186 45.5075 93.661 47.0324 90.6779 47.0324C88.7203 47.0324 86.7627 46.4606 85.3643 45.6029Z" fill="black"/>
<path d="M100.559 37.1208H96.7372V34.6428H106.898V37.1208H103.076V46.8419H100.466V37.1208H100.559Z" fill="black"/>
<path d="M114.076 34.0709L120.881 46.8418H118.085L116.873 44.5545H111.186L109.974 46.8418H107.085L114.076 34.0709ZM115.754 42.3625L114.076 39.1221L112.398 42.3625H115.754Z" fill="black"/>
<path d="M124.89 37.1208H121.068V34.6428H131.229V37.1208H127.407V46.8419H124.797V37.1208H124.89Z" fill="black"/>
<path d="M133.28 34.6428H142.695V37.1208H135.89V39.2175H140.644V41.6001H135.89V44.4593H142.695V46.9372H133.28V34.6428Z" fill="black"/>
<path d="M74.8305 81.0563V74.6709C77.0678 76.577 80.2373 77.7206 82.3814 77.7206C85.2712 77.7206 86.9492 76.6723 86.9492 74.2896C86.9492 71.4305 83.8729 70.1915 79.0254 70.954V65.9981C83.7797 65.9028 86.2966 64.2826 86.1102 61.6141C86.0169 59.8033 84.8051 58.9455 82.5678 58.9455C80.4237 58.9455 78.2797 59.8033 76.0424 61.8047L76.1356 55.6098C77.6271 54.2756 80.7034 53.3225 83.5932 53.3225C88.7203 53.3225 92.5424 56.5629 92.5424 61.1375C92.5424 64.1873 91.2373 66.3793 88.3475 67.9995C91.7966 69.1432 93.4746 71.4305 93.4746 74.7662C93.4746 79.8173 89.2797 83.6296 83.6864 83.6296C80.5169 83.5342 77.0678 82.4859 74.8305 81.0563Z" fill="#97040C"/>
<path d="M97.7627 72.8601C97.7627 66.0934 102.237 58.6596 109.975 52.9413L114.449 56.6582C109.322 60.2798 106.619 63.8061 105.78 65.4263C106.712 65.1403 107.83 64.8544 109.322 64.8544C114.636 64.8544 118.83 68.7619 118.83 73.9084C118.83 79.0549 114.729 83.6296 108.297 83.6296C102.051 83.5342 97.7627 79.2455 97.7627 72.8601ZM112.585 73.8131C112.585 71.4305 110.814 69.715 108.297 69.715C105.873 69.715 104.102 71.4305 104.102 73.8131C104.102 76.1957 105.873 77.9112 108.297 77.9112C110.814 77.9112 112.585 76.1957 112.585 73.8131Z" fill="#97040C"/>
<path d="M122.932 68.4761C122.932 58.9456 126.847 53.2273 133.466 53.2273C140.085 53.2273 144 58.8503 144 68.4761C144 78.0066 140.085 83.725 133.466 83.725C126.847 83.6296 122.932 78.0066 122.932 68.4761ZM137.754 68.4761C137.754 62.3766 136.076 58.6597 133.466 58.6597C130.856 58.6597 129.178 62.3766 129.178 68.4761C129.178 74.5757 130.856 78.2926 133.466 78.2926C136.076 78.2926 137.754 74.4804 137.754 68.4761Z" fill="#97040C"/>
</svg>
