<svg width="86" height="50" viewBox="0 0 86 50" fill="none" xmlns="http://www.w3.org/2000/svg">
<path d="M21.5572 48.9297H1V10.4197L21.5572 1V48.9297Z" fill="#97040C" stroke="#97040C" stroke-width="0.5428" stroke-miterlimit="10"/>
<path d="M23.4961 48.9297V1.66492L24.8259 2.27443V48.9297H23.4961Z" fill="#97040C"/>
<path d="M23.6071 1.88653L24.6599 2.38522V48.8189H23.6071V1.88653ZM23.3301 1.49866V49.0405H24.8816V2.21899L23.3301 1.49866Z" fill="#97040C"/>
<path d="M26.6001 48.9298V3.16101L27.93 3.71511V48.9298H26.6001Z" fill="#97040C"/>
<path d="M26.7653 3.3272L27.8735 3.82589V48.8189H26.7653V3.3272ZM26.4882 2.93933V49.0405H28.0397V3.65966L26.4882 2.93933Z" fill="#97040C"/>
<path d="M29.7573 48.9298V4.60168L31.0871 5.2112V48.9298H29.7573Z" fill="#97040C"/>
<path d="M29.868 4.76788L30.9762 5.26657V48.8189H29.868V4.76788ZM29.6464 4.38V49.0405H31.1979V5.10034L29.6464 4.38Z" fill="#97040C"/>
<path d="M32.9183 48.9298V5.98694L34.2481 6.65186V48.9298H32.9183Z" fill="#97040C"/>
<path d="M33.0281 6.20855L34.1363 6.70724V48.8189H33.0281V6.20855ZM32.8065 5.82068V49.0406H34.358V6.54101L32.8065 5.82068Z" fill="#97040C"/>
<path d="M36.0201 48.9298V7.48303L37.3499 8.09254V48.9298H36.0201Z" fill="#97040C"/>
<path d="M36.1307 7.64922L37.2389 8.14791V48.8189H36.1307V7.64922ZM35.9091 7.26135V49.0406H37.4606V7.98168L35.9091 7.26135Z" fill="#97040C"/>
<path d="M39.1782 48.9298V8.92371L40.5081 9.53322V48.9298H39.1782Z" fill="#97040C"/>
<path d="M39.2879 9.0899L40.3961 9.58859V48.8189H39.2879V9.0899ZM39.0663 8.70203V49.0406H40.6177V9.42236L39.0663 8.70203Z" fill="#97040C"/>
<path d="M48.8199 16.5703L46.1048 13.5781V16.5703H44.5533V9.47778H47.9334C49.5957 9.47778 50.593 10.3089 50.593 11.7496C50.593 13.1349 49.7619 13.8552 48.2104 13.9106L50.8701 16.5703H48.8199ZM46.1048 12.6362H48.0442C48.6537 12.6362 48.9862 12.3591 48.9862 11.7496C48.9862 11.1955 48.5983 10.863 48.0442 10.863H46.1048V12.6362Z" fill="black"/>
<path d="M52.2007 9.47778H57.7971V10.9184H53.7522V12.1375H56.5781V13.5227H53.7522V15.185H57.7971V16.6257H52.2007V9.47778Z" fill="black"/>
<path d="M62.3398 9.14539L66.3847 16.5703H64.7224L64.0021 15.2405H60.6221L59.9017 16.5703H58.184L62.3398 9.14539ZM63.3371 13.9661L62.3398 12.0821L61.3424 13.9661H63.3371Z" fill="black"/>
<path d="M67.2714 9.47778H68.8229V15.1296H72.4246V16.5703H67.2714V9.47778Z" fill="black"/>
<path d="M44.5533 20.5599H50.1498V22.0006H46.1048V23.2196H48.9307V24.6049H46.1048V26.2672H50.1498V27.7078H44.5533V20.5599Z" fill="black"/>
<path d="M51.1467 26.9321L51.9778 25.7131C52.6982 26.1009 53.5293 26.378 54.3605 26.378C55.1362 26.378 55.5795 26.1009 55.6349 25.6576C55.6349 25.2144 55.4132 25.0481 54.5267 24.8819L53.6401 24.6603C52.0332 24.3278 51.4237 23.6075 51.4237 22.4993C51.4237 21.3357 52.6427 20.4491 54.1942 20.4491C55.247 20.4491 56.2998 20.7816 57.0201 21.2248L56.2444 22.4439C55.6903 22.1114 55.0254 21.8898 54.3605 21.8898C53.6401 21.8898 53.1414 22.1114 53.1414 22.6101C53.1414 22.998 53.4739 23.2196 54.1388 23.3304L55.0808 23.5521C56.5769 23.8845 57.2418 24.5494 57.2418 25.6576C57.2418 26.8767 56.0782 27.7632 54.305 27.7632C53.1414 27.7632 51.9778 27.4308 51.1467 26.9321Z" fill="black"/>
<path d="M60.1788 22.0006H57.907V20.5599H63.9467V22.0006H61.6749V27.6524H60.1234V22.0006H60.1788Z" fill="black"/>
<path d="M68.213 20.2274L72.258 27.6524H70.5957L69.8753 26.3225H66.4953L65.775 27.6524H64.0573L68.213 20.2274ZM69.2104 25.0481L68.213 23.1642L67.2157 25.0481H69.2104Z" fill="black"/>
<path d="M74.6415 22.0006H72.3696V20.5599H78.4094V22.0006H76.1375V27.6524H74.586V22.0006H74.6415Z" fill="black"/>
<path d="M79.628 20.5599H85.2244V22.0006H81.1795V23.2196H84.0054V24.6049H81.1795V26.2672H85.2244V27.7078H79.628V20.5599Z" fill="black"/>
<path d="M44.8854 47.5445V43.832C46.2152 44.9402 48.0992 45.6052 49.3736 45.6052C51.0913 45.6052 52.0887 44.9956 52.0887 43.6104C52.0887 41.9481 50.2602 41.2278 47.3788 41.671V38.7897C50.2047 38.7343 51.7008 37.7923 51.59 36.2408C51.5346 35.1881 50.8143 34.6894 49.4844 34.6894C48.21 34.6894 46.9356 35.1881 45.6057 36.3517L45.6611 32.75C46.5477 31.9743 48.3762 31.4202 50.0939 31.4202C53.1415 31.4202 55.4133 33.3041 55.4133 35.9638C55.4133 37.7369 54.6376 39.0113 52.9198 39.9533C54.97 40.6182 55.9674 41.9481 55.9674 43.8874C55.9674 46.8242 53.4739 49.0406 50.1493 49.0406C48.2654 48.9852 46.2152 48.3757 44.8854 47.5445Z" fill="#97040C"/>
<path d="M58.517 42.7792C58.517 38.8451 61.1767 34.5231 65.7757 31.1985L68.4354 33.3595C65.3879 35.4651 63.781 37.5152 63.2823 38.4572C63.8364 38.291 64.5013 38.1248 65.3879 38.1248C68.5462 38.1248 71.0397 40.3966 71.0397 43.3887C71.0397 46.3809 68.6016 49.0405 64.7783 49.0405C61.0659 48.9851 58.517 46.4917 58.517 42.7792ZM67.3272 43.3333C67.3272 41.948 66.2744 40.9507 64.7783 40.9507C63.3377 40.9507 62.2849 41.948 62.2849 43.3333C62.2849 44.7185 63.3377 45.7159 64.7783 45.7159C66.2744 45.7159 67.3272 44.7185 67.3272 43.3333Z" fill="#97040C"/>
<path d="M73.4777 40.2304C73.4777 34.6894 75.8049 31.3647 79.7391 31.3647C83.6732 31.3647 86.0004 34.6339 86.0004 40.2304C86.0004 45.7714 83.6732 49.096 79.7391 49.096C75.8049 49.0406 73.4777 45.7714 73.4777 40.2304ZM82.2879 40.2304C82.2879 36.6841 81.2905 34.5231 79.7391 34.5231C78.1876 34.5231 77.1902 36.6841 77.1902 40.2304C77.1902 43.7766 78.1876 45.9376 79.7391 45.9376C81.2905 45.9376 82.2879 43.7212 82.2879 40.2304Z" fill="#97040C"/>
</svg>
